<?xml version="1.0" encoding="UTF-8"?>
<!DOCTYPE svg PUBLIC "-//W3C//DTD SVG 1.1//EN" "http://www.w3.org/Graphics/SVG/1.1/DTD/svg11.dtd">
<!-- Creator: CorelDRAW X7 -->
<svg xmlns="http://www.w3.org/2000/svg" xml:space="preserve" width="1080px" height="1080px" version="1.1" style="shape-rendering:geometricPrecision; text-rendering:geometricPrecision; image-rendering:optimizeQuality; fill-rule:evenodd; clip-rule:evenodd"
viewBox="0 0 1080 1080"
 xmlns:xlink="http://www.w3.org/1999/xlink">
 <defs>
  <style type="text/css">
   <![CDATA[
    .fil0 {fill:none;fill-rule:nonzero}
    .fil6 {fill:#FBCB1F;fill-rule:nonzero}
    .fil7 {fill:#C46829;fill-rule:nonzero}
    .fil2 {fill:#93C534;fill-rule:nonzero}
    .fil8 {fill:#2890CF;fill-rule:nonzero}
    .fil3 {fill:#16476F;fill-rule:nonzero}
    .fil1 {fill:#1A446E;fill-rule:nonzero}
    .fil5 {fill:black;fill-rule:nonzero}
    .fil4 {fill:white;fill-rule:nonzero}
   ]]>
  </style>
 </defs>
 <g id="Layer_x0020_1">
  <metadata id="CorelCorpID_0Corel-Layer"/>
  <g id="_2353155961968">
   <path class="fil0" d="M859 878c2,0 4,0 5,0 72,-52 126,-127 154,-213 0,0 -1,0 -2,1 -29,86 -84,161 -157,212z"/>
   <polygon class="fil0" points="348,994 355,998 358,985 358,985 "/>
   <path class="fil0" d="M331 965c-1,-1 -2,-1 -2,-1l-13 19c-2,3 -1,4 2,6 6,4 12,1 16,-5 6,-10 3,-15 -3,-19z"/>
   <path class="fil0" d="M347 89c4,-2 5,-5 2,-9 -2,-4 -5,-4 -8,-2 -1,0 -2,1 -2,1l6 11 2 -1z"/>
   <polygon class="fil0" points="396,65 388,56 388,56 389,69 "/>
   <polygon class="fil0" points="543,1049 537,1061 545,1062 543,1049 "/>
   <path class="fil0" d="M484 1034c-1,0 -2,0 -2,0l-4 12 2 1c5,1 7,0 9,-5 1,-4 -1,-7 -5,-8z"/>
   <polygon class="fil0" points="303,949 293,956 299,961 303,949 "/>
   <path class="fil0" d="M1038 534c-1,12 -1,23 -2,35 0,-1 0,-1 0,-1 1,-11 2,-21 2,-32 0,0 0,-1 0,-2z"/>
   <path class="fil0" d="M737 942c1,0 2,-1 3,-1 -1,0 -2,1 -3,1z"/>
   <path class="fil0" d="M735 943c0,0 1,-1 2,-1 -1,0 -2,1 -2,1z"/>
   <path class="fil0" d="M274 938l-2 -2 -7 8c-2,2 -2,3 1,5 2,3 6,2 9,-1 3,-4 2,-7 -1,-10z"/>
   <path class="fil0" d="M740 941c1,0 1,-1 2,-1 -1,0 -1,1 -2,1z"/>
   <path class="fil0" d="M732 944c1,-1 2,-1 3,-1 -1,0 -2,0 -3,1z"/>
   <path class="fil0" d="M283 936c3,-4 1,-6 -1,-8l-2 -2 -7 9 1 1c3,3 6,3 9,0z"/>
   <polygon class="fil0" points="468,26 468,26 467,38 475,36 "/>
   <path class="fil0" d="M335 850c-1,1 -2,2 -2,2 12,11 24,20 37,30 1,-1 3,-1 5,-1 -14,-10 -28,-20 -40,-31z"/>
   <path class="fil0" d="M537 20c4,0 6,-2 5,-7 0,-4 -3,-6 -7,-6 -1,1 -2,1 -2,1l1 13 3 -1z"/>
   <polygon class="fil0" points="924,951 929,963 935,958 925,950 "/>
   <polygon class="fil0" points="908,94 908,94 898,102 905,106 "/>
   <path class="fil0" d="M704 37c7,1 12,-5 14,-11 2,-11 -4,-15 -10,-16 -1,-1 -2,-1 -3,-1l-5 23c0,3 1,4 4,5z"/>
   <polygon class="fil0" points="854,62 854,62 845,71 852,75 "/>
   <polygon class="fil0" points="798,1021 798,1034 806,1031 798,1021 "/>
   <polygon class="fil0" points="1008,180 1008,180 996,185 1002,191 "/>
   <path class="fil0" d="M962 139c2,-3 2,-7 -1,-9 -1,-1 -1,-1 -2,-2l-8 10 2 2c3,2 6,3 9,-1z"/>
   <polygon class="fil0" points="612,1054 607,1066 615,1067 612,1054 "/>
   <path class="fil0" d="M864 986c-6,3 -5,10 -2,15 3,7 10,12 16,9 8,-5 5,-12 2,-17 -3,-6 -10,-11 -16,-7z"/>
   <polygon class="fil0" points="742,20 742,20 735,31 743,33 "/>
   <path class="fil0" d="M605 15c4,0 6,-2 6,-7 0,-4 -2,-6 -6,-6 -1,0 -2,0 -3,0l1 13 2 0z"/>
   <polygon class="fil0" points="682,1050 679,1063 687,1062 682,1050 "/>
   <polygon class="fil0" points="658,7 658,7 653,18 661,19 "/>
   <polygon class="fil0" points="571,7 571,7 568,19 576,18 "/>
   <path class="fil0" d="M743 940c0,-1 1,-1 1,-1 0,0 -1,0 -1,1z"/>
   <path class="fil1" d="M314 339c17,10 35,19 53,27 24,-67 56,-117 93,-154 -11,-6 -21,-12 -30,-19 11,5 23,10 35,14 22,-21 45,-38 69,-53 0,0 0,0 0,0 -7,-4 -12,-9 -12,-14 0,-11 17,-20 42,-25 -152,18 -280,118 -338,255 24,36 46,80 50,120 7,76 -28,120 -28,120 0,0 0,0 4,6 7,-17 23,-60 50,-92 4,-13 -2,-32 -21,-44 10,2 33,12 33,46 0,0 7,8 17,22 0,-4 0,-8 1,-12 5,-60 16,-112 30,-156 -23,-13 -40,-27 -48,-41z"/>
   <path class="fil1" d="M475 218c-34,39 -64,93 -85,157 65,24 137,34 205,35 2,-56 5,-111 8,-166 -46,-3 -92,-11 -128,-26z"/>
   <path class="fil1" d="M707 140c0,5 -4,10 -12,15 26,16 52,35 75,60 11,-3 20,-6 25,-9 43,-22 13,-47 13,-47 0,0 0,0 0,0 -44,-23 -92,-38 -143,-44 26,5 42,14 42,25z"/>
   <path class="fil1" d="M481 212c39,11 81,17 122,18 1,-14 2,-27 3,-41l0 -20 1 0c0,0 0,0 0,0l0 0c-22,-1 -42,-4 -57,-8 0,0 -1,0 -1,0 -23,9 -46,27 -68,51z"/>
   <path class="fil1" d="M753 219c-24,-28 -49,-47 -74,-58 -17,5 -38,8 -62,8 0,0 0,0 0,0l1 0 0 20c1,14 1,28 2,42 52,0 99,-5 133,-12z"/>
   <path class="fil1" d="M766 234c-41,9 -93,13 -145,11 3,54 6,109 8,165 85,-2 161,-16 209,-33 -18,-57 -44,-106 -72,-143z"/>
   <path class="fil1" d="M844 180c0,0 0,0 0,0 9,20 -17,38 -60,50 30,35 57,80 77,137 0,0 0,0 0,0 104,-49 61,-122 61,-122l0 0c-23,-25 -49,-47 -78,-65z"/>
   <path class="fil1" d="M385 880c-7,-16 -16,-38 -24,-64 -11,18 -22,29 -26,34 12,11 26,21 40,31 3,0 7,-1 10,-1z"/>
   <path class="fil1" d="M859 878c73,-51 128,-126 157,-212 -10,6 -58,38 -128,63 -12,66 -30,117 -45,149 5,0 11,0 16,0z"/>
   <path class="fil1" d="M965 299c-10,43 -40,75 -94,99 11,40 20,86 25,138 5,54 4,103 -1,148 63,-24 119,-59 141,-115 1,-12 1,-23 2,-35 -1,-87 -27,-168 -73,-235z"/>
   <path class="fil1" d="M847 408c-38,13 -84,23 -140,30 -25,3 -51,4 -77,3 3,93 4,188 2,290 3,0 6,-1 10,-1l0 -165 60 0 0 92 34 -33 68 58 -25 0 0 32c25,-4 51,-10 77,-18 6,-36 10,-76 11,-120 0,-61 -7,-117 -20,-168z"/>
   <path class="fil1" d="M600 925c-3,-56 -6,-111 -7,-164 -84,-7 -147,-27 -191,-66 5,2 11,5 17,7 3,-11 5,-30 5,-42l-20 0 17 -13c0,-2 -1,-3 -1,-3 -13,4 -15,-7 -15,-11 -9,2 -16,-8 -14,-16 -12,2 -21,-22 -2,-29 -14,-13 6,-26 12,-18 -6,-17 11,-20 13,-17 -4,-21 35,-34 37,-1 13,-3 16,12 13,17 14,-4 20,10 13,20 6,0 9,7 9,11l8 -6 2 2 0 -88 88 0 0 222c2,0 5,0 8,1 -2,-102 -1,-198 2,-291 -78,-6 -155,-24 -209,-48 -16,55 -25,117 -24,184 0,7 0,15 0,22 16,31 30,69 30,104 0,21 -2,40 -6,56 15,55 33,96 47,121 44,3 73,18 117,35 18,7 35,10 51,11z"/>
   <path class="fil1" d="M795 882c14,-28 36,-75 51,-140 -35,11 -74,18 -115,20 -36,2 -70,2 -100,1 -2,53 -4,106 -7,162 41,-3 73,-18 86,-23 11,-4 43,-15 85,-20z"/>
   <path class="fil2" d="M477 589c7,-10 1,-24 -13,-20 3,-5 0,-20 -13,-17 -2,-33 -41,-20 -37,1 -2,-3 -19,0 -13,17 -6,-8 -26,5 -12,18 -19,7 -10,31 2,29 -2,8 5,18 14,16 0,4 2,15 15,11 0,0 1,1 1,3l65 -47c0,-4 -3,-11 -9,-11z"/>
   <path class="fil2" d="M424 660c0,12 -2,31 -5,42 5,2 10,4 16,5l0 -47 -11 0z"/>
   <path class="fil3" d="M503 516l0 86 70 56 -34 0 0 69c12,2 24,2 37,3l0 -214 -73 0zm23 22l0 0 -12 0 0 -12 12 0 0 12zm20 0l0 0 -12 0 0 -12 12 0 0 12zm19 0l0 0 -13 0 0 -12 13 0 0 12z"/>
   <path class="fil4" d="M496 508l0 88 -2 -2 -8 6 -65 47 -17 13 20 0 11 0 0 47c2,1 5,2 7,3l0 -58 -15 0 67 -48 57 46 -20 0 0 77c3,0 5,0 8,0l0 -69 34 0 -70 -56 0 -86 73 0 0 214c2,0 5,0 8,0l0 -222 -88 0z"/>
   <path class="fil3" d="M672 685l23 -21 0 -91 -46 0 0 157c16,-1 31,-2 46,-3l0 -42 -23 0zm4 -103l0 0 12 0 0 12 -12 0 0 -12zm0 19l0 0 12 0 0 12 -12 0 0 -12zm-7 12l0 0 -12 0 0 -12 12 0 0 12zm0 -19l0 0 -12 0 0 -12 12 0 0 12z"/>
   <path class="fil3" d="M783 674l-47 -39 -45 42 11 0 0 49c16,-1 32,-4 47,-6 7,-1 15,-3 22,-4l0 -42 12 0zm-61 15l0 0 -12 0 0 -12 12 0 0 12z"/>
   <path class="fil4" d="M804 682l-68 -58 -34 33 0 -92 -60 0 0 165c2,0 5,0 7,0l0 -157 46 0 0 91 -23 21 23 0 0 42c2,0 5,-1 7,-1l0 -49 -11 0 45 -42 47 39 -12 0 0 42c3,-1 5,-1 8,-2l0 -32 25 0z"/>
   <path class="fil5" d="M162 252c1,-1 2,-2 4,-1l19 13c2,1 1,3 0,4l0 0 1 1c1,-1 2,-4 4,-6 1,-1 3,-4 4,-5l-1 -1 -1 1c-1,1 -2,2 -4,1l-19 -12c-2,-2 0,-4 0,-5l1 0 -2 -1c-1,2 -2,4 -3,6 -1,2 -3,4 -4,5l1 1 0 -1z"/>
   <path class="fil5" d="M172 238c0,-1 1,-2 2,-2 1,1 1,3 2,4l3 13 15 -1c1,-1 3,-1 4,-1 1,-1 1,-2 2,-3 1,-1 2,-2 3,-4l-2 0c0,1 -2,2 -4,2l-17 1 -3 -10c0,-2 -1,-5 1,-8l0 0 -1 -1c-1,2 -2,3 -3,5 -1,2 -2,3 -3,5l1 0 0 0z"/>
   <path class="fil5" d="M181 224c1,-1 2,-2 4,-1l18 14c2,1 1,3 0,4l0 0 1 1c2,-2 5,-6 7,-9 2,-3 5,-7 7,-9 -2,-2 -3,-4 -5,-6l-1 1c4,4 2,6 -1,10 -1,3 -3,5 -5,3l-8 -6 3 -4c2,-3 3,-2 5,0l1 -2c-1,-1 -3,-2 -4,-3 -1,-1 -3,-2 -4,-3l-1 1c2,2 3,3 1,5l-3 5 -9 -7 4 -5c2,-4 5,-3 7,-1l0 -2c-1,-1 -3,-2 -5,-3 -2,2 -4,6 -6,8 -3,3 -5,7 -7,9l1 1 0 -1z"/>
   <path class="fil5" d="M200 199c1,-1 3,-2 5,0 1,1 3,3 5,5l9 9c2,2 3,3 1,6l-1 0 1 1c1,-1 2,-2 3,-4 2,-1 3,-3 4,-4l0 -1 -1 1c-1,0 -1,1 -2,1 -1,0 -1,0 -2,-1l-14 -13 0 0 25 7 1 0 -11 -25 0 0 14 11c1,1 2,1 2,2 1,1 0,2 -1,4l1 1c1,-2 3,-4 5,-6 1,-1 2,-3 4,-4l-1 -1c-2,2 -3,2 -5,1l-16 -12c0,0 -1,-1 -2,-2 -2,-1 0,-3 1,-4l0 0 -1 -1c-1,1 -2,2 -3,3 -1,1 -2,3 -3,4l11 22 -24 -7c-1,1 -2,2 -3,3 -1,1 -2,3 -3,4l1 1 0 -1z"/>
   <path class="fil5" d="M230 166c1,-1 2,-2 4,0l16 16c1,1 0,3 -1,4l0 0 1 1c1,-2 5,-5 8,-8 2,-3 6,-6 8,-8 -1,-2 -3,-4 -4,-6l-1 0c3,5 1,7 -2,10 -2,2 -4,4 -6,2l-7 -7 3 -4c3,-2 4,-1 6,1l1 -1c-2,-1 -3,-2 -4,-4 -1,-1 -2,-2 -3,-3l-1 1c1,1 2,3 0,5l-4 3 -8 -8 4 -4c4,-3 6,-2 8,0l0 -1c-1,-1 -3,-3 -4,-5 -2,2 -5,6 -8,8 -3,3 -6,6 -8,8l1 1 1 -1z"/>
   <path class="fil5" d="M250 146c2,-2 4,-2 6,0l12 14c2,2 3,4 0,6l0 1 1 1c1,-2 3,-3 4,-4 1,-2 3,-3 4,-4l-1 -1 0 1c-3,2 -4,1 -6,-1l-12 -14 33 4 1 -1c-1,-1 -2,-2 -3,-3l-13 -15c-3,-4 -2,-5 -1,-7l1 0 -1 -1c-1,1 -3,2 -4,4 -1,1 -3,2 -5,3l1 1 1 0c1,-1 3,-2 5,0l11 13 0 0 -29 -4c-1,1 -1,2 -2,3 -2,1 -3,2 -4,3l1 1 0 0z"/>
   <path class="fil5" d="M282 124l1 -1c-2,-2 -2,-3 1,-5l5 -4 14 18c2,3 2,4 0,5l-1 1 1 1c1,-1 3,-3 6,-5 1,-1 4,-3 5,-4l-1 -1 0 0c-2,2 -3,2 -5,-1l-14 -18 5 -4c3,-2 4,0 5,1l1 -1c-1,-1 -1,-2 -2,-3 -1,-1 -1,-2 -2,-3l-1 1c1,1 0,1 -1,2l-17 14c-1,0 -2,1 -3,0l-1 1c1,1 1,2 2,3 1,1 1,2 2,3z"/>
   <path class="fil5" d="M307 99c1,0 2,-1 4,1l12 18c2,2 0,3 -1,4l0 1 0 1c2,-2 7,-5 10,-7 3,-2 7,-5 10,-6 -1,-2 -2,-5 -3,-7l-1 1c1,4 0,6 -5,9 -2,2 -4,3 -6,1l-5 -9 4 -3c3,-1 4,0 5,2l1 -1c-1,-1 -2,-3 -3,-4 -1,-1 -1,-3 -2,-4l-1 0c1,3 1,4 -1,6l-4 2 -7 -9 5 -3c4,-3 6,-1 7,1l1 -1c-1,-2 -3,-4 -3,-6 -3,2 -7,5 -10,7 -3,2 -6,4 -9,6l1 1 1 -1z"/>
   <path class="fil5" d="M331 83c1,-1 3,-2 4,1l12 19c0,2 0,3 -2,4l0 0 0 1c2,-1 4,-2 5,-3 3,-1 5,-2 7,-4l-1 -1 0 1c-2,1 -3,1 -5,-2l-5 -8 3 -1c5,3 9,5 14,7 2,0 3,-1 4,-2 1,-1 2,-1 4,-2l-1 -1c-2,1 -3,1 -5,0l-12 -6c2,-3 3,-6 1,-9 -3,-6 -8,-5 -12,-2 -2,1 -4,3 -6,4 -3,1 -5,3 -6,3l0 1 1 0zm10 -5l0 0c3,-2 6,-2 8,2 3,4 2,7 -2,9l-2 1 -6 -11c0,0 1,-1 2,-1z"/>
   <path class="fil5" d="M360 66c1,0 3,-1 4,1l10 20c1,2 0,3 -1,4l-1 0 1 1c1,-1 3,-2 5,-3 2,-1 5,-2 6,-3l0 -1 -1 0c-1,1 -3,1 -4,-1l-10 -20c-1,-2 0,-3 1,-3l1 -1 -1 -1c-2,1 -4,3 -6,4 -2,1 -4,2 -5,2l0 2 1 -1z"/>
   <path class="fil5" d="M388 79c0,2 -1,4 -2,5l0 0 0 1c2,-1 3,-2 4,-2 2,-1 4,-2 5,-2l0 -2 -1 1c-1,0 -3,1 -3,0 -1,-1 -1,-2 -1,-4l-1 -5 9 -4 4 4c1,1 2,2 2,3 0,1 -1,1 -2,2l0 0 0 1c2,-1 4,-2 6,-3 2,-1 4,-1 6,-2l-1 -1 0 0c-2,0 -3,0 -4,-1 -1,0 -2,-2 -3,-3l-17 -17c0,0 0,-1 -1,-1 0,0 0,0 0,0 0,0 0,0 0,0 -1,1 -2,3 -3,4 1,1 1,4 1,5l2 21zm0 -23l0 0 8 9 -7 4 -1 -13 0 0z"/>
   <path class="fil5" d="M405 44c2,-1 5,0 5,2l7 17c1,3 1,5 -2,7l0 0 0 1c2,-1 4,-2 6,-2 1,-1 3,-1 5,-2l0 -1 -1 0c-3,1 -4,0 -6,-3l-6 -17 30 15 1 -1c-1,-1 -1,-2 -2,-4l-7 -18c-2,-5 0,-6 2,-6l0 -1 0 -1c-2,1 -3,2 -5,2 -2,1 -4,2 -6,2l1 1 1 0c1,0 3,-1 5,3l5 15 0 0 -25 -13c-2,0 -3,1 -4,1 -1,1 -3,1 -5,2l1 1 0 0z"/>
   <path class="fil5" d="M466 52c2,0 4,-1 5,-1l0 -1 -1 0c-1,0 -3,1 -3,-1 0,0 0,-2 0,-3l0 -5 9 -3 3 5c1,1 2,2 2,2 0,2 -1,2 -2,2l-1 1 1 1c2,-1 4,-2 6,-2 2,-1 4,-1 6,-2l-1 -1 0 0c-1,1 -2,0 -3,-1 -1,-1 -2,-2 -3,-3l-14 -20c0,0 0,-1 0,-1 0,0 0,0 -1,0 0,0 0,0 0,0 -1,1 -2,2 -3,3 0,2 0,4 0,6l-1 21c-1,2 -2,3 -3,3l-1 0 1 2c1,-1 3,-1 4,-2zm2 -26l0 0 0 0 7 10 -8 2 1 -12z"/>
   <path class="fil5" d="M510 42c4,-1 8,-3 11,-5l0 0 -1 -1 -1 -6c-1,-2 0,-2 2,-3l0 0 0 -1c-2,0 -4,1 -6,1 -2,1 -4,1 -6,1l0 2 1 0c1,-1 3,-1 3,1l2 7c-1,1 -3,1 -5,2 -8,2 -13,-5 -14,-12 -2,-7 1,-14 8,-15 5,-1 9,0 12,5l1 -1c-1,-2 -2,-5 -2,-7 -2,0 -3,0 -5,0 -2,0 -4,0 -6,1 -9,2 -16,9 -14,19 2,10 11,14 20,12z"/>
   <path class="fil5" d="M524 9c1,0 3,-1 4,3l3 21c0,2 -1,3 -3,3l-1 0 0 2c3,-1 5,-1 7,-1 2,-1 5,-1 7,-1l0 -2 -1 0c-2,1 -4,1 -4,-2l-1 -10 2 0c4,4 7,9 11,13 2,-1 3,-1 4,-1 2,0 3,0 5,-1l-1 -1c-2,0 -3,0 -4,-2l-9 -10c3,-2 5,-4 5,-8 -1,-6 -6,-7 -11,-6 -3,0 -5,0 -7,1 -3,0 -6,0 -7,1l0 1 1 0zm11 -2l0 0c4,0 7,2 7,6 1,5 -1,7 -5,7l-3 1 -1 -13c0,0 1,0 2,-1z"/>
   <path class="fil5" d="M564 32c2,0 4,0 6,0l0 -1 -1 0c-1,0 -3,0 -3,-1 0,-1 0,-2 0,-4l1 -4 10 -1 2 5c1,1 1,2 1,3 1,1 -1,1 -2,1l-1 0 0 2c3,-1 5,-1 7,-1 2,0 4,0 6,0l0 -2 0 0c-2,0 -3,0 -3,-1 -1,-1 -2,-3 -2,-4l-10 -22c0,-1 0,-1 -1,-2 0,0 0,0 0,0 0,0 0,0 0,0 -1,1 -3,2 -4,3 0,1 -1,4 -1,5l-6 21c0,1 -1,3 -3,3l0 0 0 1c1,0 3,0 4,-1zm7 -25l0 0 0 0 5 11 -8 1 3 -12z"/>
   <path class="fil5" d="M594 2c1,-1 3,0 3,3l0 22c0,1 -1,2 -3,2l-1 0 0 1c3,0 5,0 7,0 2,0 5,0 7,0l0 -1 -1 0c-2,0 -3,0 -3,-3l0 -10 2 0c3,5 6,10 10,14 1,0 2,0 4,0 1,0 3,0 4,0l0 -1c-2,-1 -3,-1 -4,-3l-8 -11c4,-1 6,-4 6,-8 0,-6 -5,-7 -10,-7 -3,0 -5,0 -7,0 -3,0 -6,0 -7,0l0 2 1 0zm11 0l0 0c4,0 6,2 6,6 0,5 -2,7 -6,7l-2 0 -1 -13c1,0 2,0 3,0z"/>
   <path class="fil5" d="M633 30c2,0 4,1 7,1l0 -2 -1 0c-2,0 -3,0 -3,-2l1 -23c0,-2 1,-2 3,-2l1 0 0 -1c-2,-1 -5,0 -7,-1 -2,0 -5,0 -7,0l0 1 1 0c2,0 3,1 3,3l-1 23c0,2 -1,2 -3,2l-1 0 0 1c2,0 5,0 7,0z"/>
   <path class="fil5" d="M653 32l0 -2 -1 0c-1,0 -3,0 -3,-2 0,0 1,-1 1,-3l2 -4 10 1 1 5c1,1 1,2 1,3 0,1 -2,1 -3,1l0 0 -1 1c3,0 5,0 7,1 2,0 4,0 6,0l0 -1 0 0c-2,0 -3,-1 -3,-2 0,-1 -1,-3 -1,-5l-6 -23c0,0 0,-1 -1,-1 0,0 0,0 0,0 0,0 0,0 0,0 -1,0 -3,1 -4,2 -1,1 -2,3 -2,5l-9 19c-1,2 -2,3 -4,2l0 0 0 2c1,0 3,0 4,0 2,0 4,0 6,1zm5 -25l0 0 0 0 3 12 -8 -1 5 -11z"/>
   <path class="fil5" d="M705 38c9,2 17,-3 19,-12 1,-9 -4,-16 -15,-18 -1,0 -4,0 -6,-1 -3,0 -6,-1 -7,-1l0 1 0 0c2,0 3,1 3,3l-4 23c-1,2 -2,2 -4,1l0 0 -1 2c1,0 5,0 7,1 3,0 6,1 8,1zm-5 -6l0 0 5 -23c1,0 2,0 3,1 6,1 12,5 10,16 -2,6 -7,12 -14,11 -3,-1 -4,-2 -4,-5z"/>
   <path class="fil5" d="M723 40l0 2c1,0 3,0 4,1 2,0 4,0 5,1l1 -1 -1 0c-1,-1 -3,-1 -3,-3 1,0 1,-1 2,-3l3 -4 9 3 1 5c0,1 0,3 0,3 -1,1 -2,1 -3,1l-1 0 0 1c2,0 4,1 6,1 2,1 4,1 6,2l0 -1 0 0c-1,-1 -2,-1 -2,-3 0,-1 -1,-3 -1,-4l-2 -24c0,-1 0,-1 0,-2 0,0 0,0 0,0 0,0 -1,0 -1,0 -1,1 -3,1 -4,1 -1,2 -2,4 -3,5l-11 18c-1,1 -3,2 -5,1l0 0zm19 -20l0 0 0 0 1 13 -8 -2 7 -11z"/>
   <path class="fil5" d="M766 53l0 -1 0 0c-4,-1 -4,-3 -3,-6l6 -17 13 30 2 1c0,-2 1,-3 1,-4l6 -19c2,-5 4,-5 5,-4l1 0 0 -1c-1,-1 -3,-1 -5,-2 -2,0 -3,-1 -5,-2l-1 1 1 1c1,0 4,1 3,5l-6 15 0 0 -11 -26c-1,-1 -3,-1 -4,-1 -1,-1 -3,-2 -5,-2l0 1 1 0c1,1 3,3 2,5l-6 18c-1,3 -2,5 -5,4l-1 -1 0 2c2,0 4,1 6,1 1,1 3,2 5,2z"/>
   <path class="fil5" d="M823 75l1 -1 -1 0c-2,-1 -3,-2 -2,-5l10 -21 6 3c3,1 2,3 1,5l2 0c0,-1 1,-2 1,-3 1,-1 1,-2 2,-3l-1 -1c0,1 -1,1 -3,0l-20 -9c-1,0 -2,-1 -2,-2l-1 0c0,1 -1,2 -2,3 0,1 -1,2 -1,3l1 1c2,-3 2,-4 5,-2l6 3 -9 21c-1,3 -2,3 -5,2l0 -1 -1 2c2,0 5,1 7,2 2,1 5,3 6,3z"/>
   <path class="fil5" d="M831 77l0 0 -1 1c2,1 3,2 5,2 1,1 3,2 4,3l1 -1 -1 0c-1,-1 -2,-2 -2,-3 1,-1 2,-2 3,-3l3 -3 9 4 -1 5c0,2 -1,3 -1,4 0,1 -2,0 -3,0l0 -1 -1 1c2,1 4,2 6,3 2,1 4,2 5,3l1 -1 0 0c-2,-1 -2,-2 -2,-3 0,-1 0,-3 0,-5l4 -24c0,0 0,0 0,-1 0,0 0,0 0,0 -1,0 -1,0 -1,0 -1,0 -3,0 -4,0 -1,1 -3,3 -4,4l-15 15c-2,1 -3,1 -5,0zm23 -15l0 0 0 0 -2 13 -7 -4 9 -9z"/>
   <path class="fil5" d="M876 103l1 -1 -1 0c-1,-1 -2,-2 -1,-5l12 -20 6 4c2,1 1,3 1,5l1 0c1,-1 1,-2 2,-3 1,-1 1,-2 2,-3l-1 0c0,1 -1,0 -2,0l-20 -12c-1,0 -2,-1 -1,-2l-1 -1c-1,1 -2,2 -2,3 -1,1 -2,2 -3,3l2 1c2,-2 2,-3 5,-1l6 3 -12 20c-1,3 -2,3 -5,1l0 0 -1 1c2,1 4,2 6,4 3,1 5,3 6,3z"/>
   <path class="fil5" d="M884 106l0 0 -1 1c1,1 3,2 4,3 1,1 3,2 4,3l1 -1 0 0c-2,-1 -3,-2 -2,-4 0,0 1,-1 2,-2l4 -3 8 6 -1 5c-1,1 -1,2 -1,3 -1,1 -2,0 -3,-1l0 0 -1 1c2,1 4,3 5,4 2,1 4,2 5,3l1 -1 0 0c-2,-1 -2,-2 -2,-3 1,-1 1,-3 1,-5l6 -23c0,0 1,-1 1,-1 0,0 0,0 -1,0 0,0 0,0 0,0 -1,0 -3,-1 -4,-1 -1,1 -3,2 -4,4l-17 12c-2,1 -4,1 -5,0zm24 -12l0 0 0 0 -3 12 -7 -4 10 -8z"/>
   <path class="fil5" d="M944 153l1 -1 -1 -1c-1,-1 -2,-2 0,-5l6 -7 2 2c-1,6 -2,11 -2,17 1,1 2,1 3,2 1,1 2,2 3,3l1 -1c-2,-1 -2,-2 -2,-5l2 -13c3,1 7,1 10,-2 4,-4 1,-9 -3,-12 -2,-2 -4,-3 -6,-5 -2,-1 -4,-3 -5,-4l0 1 0 0c1,1 2,3 0,5l-14 17c-1,1 -3,0 -4,-1l-1 0 0 1c1,1 3,2 5,4 1,1 3,3 5,5zm15 -25l0 0c1,1 1,1 2,2 3,2 3,6 1,9 -3,4 -6,3 -9,1l-2 -2 8 -10z"/>
   <path class="fil5" d="M978 149l-11 11c-5,5 -4,11 2,17 4,4 10,6 17,-1l10 -10c2,-2 3,-1 4,0l1 0 0 -1c-1,-1 -2,-2 -3,-3 -2,-1 -3,-3 -4,-4l-1 1 1 1c1,1 2,2 0,4l-11 11c-4,4 -8,5 -12,1 -4,-5 -3,-9 1,-13l10 -10c2,-3 4,-1 5,0l0 0 1 -1c-1,-1 -3,-2 -5,-4 -2,-2 -3,-4 -4,-5l-1 1 0 0c1,1 2,3 0,5z"/>
   <path class="fil5" d="M981 186l0 0 -1 1c1,1 3,2 4,3 1,2 2,3 3,5l1 -1 0 -1c-1,-1 -2,-2 -1,-3 0,-1 1,-1 3,-2l4 -2 6 8 -2 4c-1,2 -1,3 -2,3 -1,1 -2,0 -3,-1l0 -1 -1 1c2,2 3,3 5,5 1,2 2,3 3,5l1 -1 0 0c-1,-1 -1,-2 0,-4 0,-1 1,-2 2,-4l11 -21c1,0 1,-1 1,-1 0,0 0,0 0,0 0,0 0,0 0,0 -1,-1 -3,-1 -5,-2 -1,1 -3,2 -5,2l-19 8c-2,1 -3,1 -5,-1zm27 -6l0 0 0 0 -6 11 -6 -6 12 -5z"/>
   <path class="fil5" d="M1025 200l-14 11c-3,2 -5,3 -7,1l0 -1 -1 1c1,2 2,3 3,5 1,1 2,3 4,4l1 -1 -1 0c-2,-3 -1,-4 2,-7l14 -11 -6 33 1 2c1,-1 2,-2 3,-3l16 -12c4,-4 5,-2 6,-1l1 1 1 -1c-1,-1 -3,-3 -4,-4 -1,-2 -2,-3 -3,-5l-1 1 0 1c1,1 2,3 -1,5l-12 10 -1 0 6 -29c-1,-1 -2,-2 -3,-3 -1,-1 -2,-2 -3,-4l-1 1 1 1c1,1 1,4 -1,5z"/>
   <path class="fil5" d="M1039 234c-8,6 -9,16 -4,24 3,3 5,6 8,9l1 -1 0 -1 6 -4c1,0 2,0 3,1l0 1 1 -1c-1,-2 -2,-3 -3,-5 -2,-2 -3,-3 -4,-5l-1 0 0 1c1,1 2,3 0,4l-5 4c-1,0 -3,-2 -4,-4 -4,-7 0,-14 6,-18 6,-4 13,-4 17,3 3,4 3,8 0,12l1 1c1,-2 4,-4 5,-4 -1,-2 -1,-3 -2,-5 0,-2 -1,-3 -2,-6 -5,-7 -14,-11 -23,-6z"/>
   <path class="fil5" d="M279 952c4,-4 2,-9 -2,-12l0 -1c3,2 8,4 11,0 2,-3 2,-7 -4,-11 -1,-2 -3,-3 -5,-5 -2,-1 -4,-3 -5,-4l-1 1 1 0c1,1 2,2 0,4l-14 17c-2,2 -3,1 -4,0l-1 0 -1 1c2,1 4,3 6,5 2,1 4,3 6,5 4,3 10,3 13,0zm1 -26l0 0 2 2c2,2 4,4 1,8 -3,3 -6,3 -9,0l-1 -1 7 -9zm-5 22l0 0c-3,3 -7,4 -9,1 -3,-2 -3,-3 -1,-5l7 -8 2 2c3,3 4,6 1,10z"/>
   <path class="fil5" d="M301 975c0,-1 1,-3 1,-4l8 -23c0,0 0,-1 0,-1 0,0 0,0 0,-1 0,0 0,0 -1,0 -1,0 -2,0 -4,-1 -1,2 -3,3 -4,4l-18 11c-1,2 -3,1 -5,0l0 0 -1 1c2,1 3,2 4,3 2,1 3,2 4,3l1 -1 0 0c-1,-1 -3,-2 -2,-3 1,-1 2,-1 3,-2l4 -3 8 6 -2 5c-1,1 -1,2 -1,3 -1,1 -2,0 -3,-1l-1 0 0 1c1,1 3,3 5,4 2,1 3,2 5,4l0 -1 0 -1c-1,0 -1,-1 -1,-3zm-8 -19l0 0 10 -7 0 0 -4 12 -6 -5z"/>
   <path class="fil5" d="M339 987c5,-8 3,-17 -6,-22 -1,-1 -3,-3 -6,-4 -2,-2 -4,-3 -5,-4l-1 1 1 0c1,1 2,2 1,4l-13 19c-1,2 -2,1 -4,0l0 0 -1 1c1,1 4,2 6,4 3,2 5,3 7,4 7,6 17,4 21,-3zm-5 -3l0 0c-4,6 -10,9 -16,5 -3,-2 -4,-3 -2,-6l13 -19c0,0 1,0 2,1 6,4 9,9 3,19z"/>
   <path class="fil5" d="M359 1012c0,-2 0,-3 0,-5l5 -24c0,0 0,0 0,-1 0,0 0,0 0,0 0,0 0,0 -1,0 -1,0 -2,0 -4,0 -1,1 -3,2 -4,3l-16 14c-1,2 -3,2 -4,1l-1 0 0 1c1,1 2,1 4,2 1,1 3,2 4,3l1 -1 -1 -1c-1,0 -2,-1 -2,-3 1,0 2,-1 3,-2l3 -3 9 5 -1 5c0,1 -1,3 -1,3 -1,1 -2,0 -3,0l0 0 -1 1c2,1 4,2 6,3 2,1 3,2 5,3l0 -1 0 0c-1,-1 -2,-2 -1,-3zm-4 -14l0 0 -7 -4 10 -9 0 0 -3 13z"/>
   <path class="fil5" d="M398 1001l-1 1 1 1c1,0 3,2 2,5l-7 15 0 0 -8 -28c-1,-1 -3,-1 -4,-2 -1,-1 -3,-2 -4,-2l-1 1 1 0c2,1 3,3 2,5l-8 17c-2,3 -4,4 -6,3l-1 0 0 1c1,1 3,2 5,2 2,1 3,2 5,3l1 -1 -1 0c-3,-2 -3,-3 -2,-7l8 -16 9 32 2 1c0,-1 1,-3 2,-4l8 -18c2,-4 4,-4 6,-3l1 0 0 -1c-1,-1 -3,-1 -5,-2 -2,-1 -3,-2 -5,-3z"/>
   <path class="fil5" d="M441 1028c2,-6 -1,-9 -6,-11 -2,-1 -4,-2 -6,-3 -2,0 -5,-1 -6,-2l0 1 0 1c2,0 3,1 2,4l-8 19c-1,3 -2,3 -4,2l0 0 -1 1c3,1 5,2 7,3 2,1 4,2 6,2l1 -1 -1 0c-2,-1 -4,-2 -3,-5l9 -22 1 0c4,2 5,5 4,9 -2,4 -4,6 -8,5l-1 0 0 1c1,0 2,1 3,1 5,1 9,0 11,-5z"/>
   <path class="fil5" d="M457 1025c-4,-2 -8,-3 -11,-4l0 1 1 0c1,1 3,2 2,4l-7 21c-1,3 -2,2 -4,2l0 0 -1 1c3,1 8,2 11,3 4,1 9,3 11,4 1,-2 3,-4 4,-6l-1 -1c-3,5 -5,4 -10,3 -3,-1 -5,-2 -4,-5l3 -9 5 1c2,1 2,3 1,5l2 0c0,-1 1,-3 1,-4 1,-2 1,-3 2,-5l-1 0c-1,2 -2,3 -5,2l-5 -1 4 -11 5 2c5,1 5,3 4,6l1 0c1,-2 2,-4 2,-6 -3,-1 -7,-2 -10,-3z"/>
   <path class="fil5" d="M494 1043c2,-6 -3,-9 -8,-10 -2,-1 -4,-1 -7,-2 -2,0 -5,-1 -6,-1l0 1 0 0c2,0 3,1 3,4l-6 21c0,2 -2,2 -4,2l0 0 -1 1c2,0 5,1 7,1 2,1 4,2 7,2l0 -1 -1 0c-2,-1 -3,-1 -2,-4l2 -9 3 0c1,6 3,11 5,16 1,1 3,1 4,1 1,0 3,1 4,1l0 -1c-2,-1 -2,-1 -3,-4l-4 -12c3,-1 6,-2 7,-6zm-5 -1l0 0c-2,5 -4,6 -9,5l-2 -1 4 -12c0,0 1,0 2,0 4,1 6,4 5,8z"/>
   <path class="fil5" d="M528 1049l2 -1c0,-1 0,-2 0,-3 1,-1 1,-2 2,-3l-1 -1c-1,2 -2,1 -3,1l-22 -4c-1,0 -2,0 -2,-2l-1 0c0,1 -1,2 -1,4 -1,1 -1,2 -1,3l1 0c1,-3 1,-3 5,-3l7 2 -5 22c-1,4 -2,4 -4,3l-1 0 0 1c2,1 5,1 7,2 2,0 5,1 7,1l0 -1 -1 0c-2,-1 -3,-1 -2,-5l4 -22 7 1c3,1 3,3 2,5z"/>
   <path class="fil5" d="M554 1073c-1,-1 -1,-3 -1,-4l-5 -24c0,0 0,-1 0,-1 -1,0 -1,0 -1,0 0,0 0,0 0,0 -1,0 -3,1 -4,1 -1,2 -2,4 -3,5l-9 19c-1,2 -3,3 -4,2l0 0 -1 2c2,0 3,0 5,0 2,0 3,1 5,1l0 -1 0 0c-2,-1 -3,-1 -3,-2 0,-1 1,-2 1,-3l2 -5 10 2 1 5c0,1 0,2 0,3 0,1 -1,1 -2,1l-1 0 0 1c2,0 4,1 6,1 2,0 4,0 6,1l0 -2 0 0c-1,0 -2,0 -2,-2zm-17 -12l0 0 6 -12 0 0 2 13 -8 -1z"/>
   <path class="fil5" d="M586 1049l0 1 1 0c1,0 4,1 3,4l-1 17 0 0 -18 -23c-1,0 -2,0 -3,0 -2,-1 -4,-1 -5,-1l0 1 0 0c2,1 4,2 4,5l-1 18c-1,3 -2,5 -5,5l0 0 0 1c2,0 4,0 5,1 2,0 4,0 6,0l0 -1 -1 0c-3,-1 -4,-2 -3,-6l1 -17 20 26 2 0c0,-1 0,-3 0,-4l1 -20c1,-5 3,-5 5,-5l0 0 0 -2c-1,0 -3,0 -5,0 -2,0 -4,0 -6,0z"/>
   <path class="fil5" d="M625 1077c-1,-1 -1,-3 -2,-5l-7 -22c0,-1 0,-1 -1,-1 0,-1 0,-1 0,-1 0,0 0,0 0,0 -1,1 -3,2 -4,2 0,2 -1,4 -2,6l-7 19c-1,2 -2,3 -4,3l0 0 0 1c1,0 3,0 5,0 1,0 3,1 5,1l0 -2 -1 0c-1,0 -3,0 -3,-1 0,-1 1,-2 1,-4l2 -4 9 0 2 5c0,1 1,3 1,3 0,1 -2,1 -3,1l0 0 0 2c2,0 4,0 6,0 2,0 4,0 6,0l0 -1 0 0c-2,0 -3,-1 -3,-2zm-18 -11l0 0 5 -12 0 0 3 13 -8 -1z"/>
   <path class="fil5" d="M667 1076c-2,0 -4,0 -4,-2l-1 -23c0,-2 1,-2 3,-2l0 0 0 -2c-1,0 -4,1 -6,1 -3,0 -5,0 -7,0l0 1 1 0c1,0 3,0 3,3l1 9 -16 1 0 -9c-1,-3 1,-3 3,-3l1 0 0 -1c-2,0 -5,0 -7,0 -3,0 -5,0 -7,0l0 2 1 0c1,0 3,0 3,2l2 23c0,2 -2,2 -4,2l0 0 0 2c2,0 4,-1 6,-1 3,0 6,0 7,0l0 -1 0 0c-2,0 -4,0 -4,-3l-1 -10 16 -1 1 10c0,3 -2,3 -4,3l0 0 0 1c2,0 4,0 7,0 2,0 5,0 6,-1l0 -1 0 0z"/>
   <path class="fil5" d="M701 1072c-1,0 -2,-1 -3,-2 -1,-1 -1,-2 -2,-4l-11 -21c0,-1 0,-1 0,-1 0,0 -1,0 -1,0 0,0 0,0 0,0 -1,0 -2,1 -4,2 0,2 0,4 -1,6l-4 20c0,2 -1,3 -3,4l0 0 0 1c1,0 3,-1 4,-1 2,0 4,0 6,0l-1 -2 0 0c-1,1 -3,1 -3,-1 -1,0 0,-2 0,-3l1 -5 10 -1 2 5c1,1 1,2 1,3 0,1 -1,1 -2,1l-1 0 0 2c3,-1 5,-1 7,-1 2,-1 4,-1 6,-1l0 -1 -1 0zm-22 -9l0 0 3 -13 0 0 5 12 -8 1z"/>
   <path class="fil5" d="M731 1043c-1,-5 1,-6 3,-6l0 0 0 -1c-2,0 -3,1 -5,1 -2,0 -4,1 -6,1l0 1 1 0c1,0 4,0 5,3l3 16 0 0 -23 -17c-2,0 -3,1 -4,1 -2,0 -3,0 -5,1l0 1 1 0c2,-1 4,0 4,3l4 18c1,3 0,5 -3,6l0 0 0 1c2,0 4,-1 6,-1 2,0 3,-1 5,-1l0 -1 -1 0c-3,1 -4,-1 -5,-4l-3 -18 26 20 2 0c0,-1 -1,-3 -1,-4l-4 -20z"/>
   <path class="fil5" d="M780 1029c-1,-5 1,-6 2,-6l1 0 0 -2c-2,1 -4,2 -5,2 -2,1 -4,1 -6,2l0 1 1 0c1,-1 4,-1 5,3l5 15 -1 0 -24 -15c-2,1 -3,1 -4,1 -1,1 -3,1 -5,2l1 1 0 0c2,-1 4,0 5,2l6 18c1,3 0,5 -3,6l0 0 0 2c2,-1 4,-2 6,-2 2,-1 3,-1 5,-2l0 -1 -1 0c-3,1 -4,0 -5,-3l-6 -17 29 17 2 -1c-1,-1 -1,-2 -2,-4l-6 -19z"/>
   <path class="fil5" d="M822 1037c-2,1 -3,1 -4,0 -1,-1 -2,-3 -3,-4l-15 -18c0,0 -1,-1 -1,-1 0,0 0,0 0,0 0,0 0,0 -1,0 0,1 -1,2 -3,3 1,2 1,4 1,6l1 21c0,2 -1,3 -3,4l0 0 0 1c2,0 3,-1 5,-2 1,0 3,-1 5,-1l-1 -1 0 0c-2,0 -3,1 -4,-1 0,0 0,-2 0,-3l-1 -5 10 -3 3 4c1,1 2,2 2,2 0,1 -1,2 -2,3l-1 0 1 1c2,-1 4,-2 6,-3 2,0 4,-1 5,-2l0 -1 0 0zm-24 -3l0 0 0 -13 0 0 8 10 -8 3z"/>
   <path class="fil5" d="M822 1012c-1,-3 0,-5 3,-7 2,-1 5,1 7,3l1 0c-1,-2 -2,-4 -3,-6 -2,0 -5,1 -6,2 -5,2 -8,7 -5,12 4,10 15,2 18,9 1,3 0,6 -3,7 -4,2 -7,0 -9,-4l-1 1c1,2 2,4 3,6 3,0 5,0 7,-1 5,-2 9,-7 6,-13 -4,-9 -15,-2 -18,-9z"/>
   <path class="fil5" d="M859 1020c-2,1 -3,1 -4,-1l-10 -20c-1,-2 0,-3 1,-4l1 0 -1 -1c-1,1 -4,2 -6,3 -2,1 -4,2 -5,3l0 1 1 0c1,-1 3,-2 4,0l10 21c1,2 -1,3 -2,3l-1 1 1 1c1,-1 4,-2 6,-3 2,-1 4,-2 6,-3l-1 -1 0 0z"/>
   <path class="fil5" d="M863 984c-8,4 -10,14 -6,22 5,8 14,10 22,5 8,-4 11,-13 6,-22 -4,-8 -14,-10 -22,-5zm15 26l0 0c-6,3 -13,-2 -16,-9 -3,-5 -4,-12 2,-15 6,-4 13,1 16,7 3,5 6,12 -2,17z"/>
   <path class="fil5" d="M910 964c-3,-5 -1,-6 0,-7l1 -1 -1 -1c-1,1 -3,3 -4,3 -2,2 -4,3 -5,4l0 1 1 -1c1,0 4,-1 6,2l8 13 0 0 -28 -7c-1,0 -2,1 -3,2 -1,1 -3,2 -4,3l1 1 0 -1c2,-1 4,-1 6,2l10 15c2,3 2,5 -1,6l0 1 1 1c1,-1 3,-2 5,-3 1,-2 3,-2 4,-3l0 -2 -1 1c-3,2 -4,1 -6,-2l-10 -15 32 8 2 0c-1,-1 -2,-3 -3,-4l-11 -16z"/>
   <path class="fil5" d="M952 960c-1,1 -2,1 -3,0 -1,-1 -3,-2 -4,-3l-20 -13c0,0 -1,0 -1,0 0,0 0,0 0,0 0,0 -1,0 -1,0 0,1 -1,3 -2,4 1,1 2,3 2,5l7 20c0,2 0,4 -1,5l-1 0 1 1c1,-1 3,-2 4,-3 1,-1 3,-2 4,-3l-1 -1 0 0c-1,1 -3,2 -4,1 0,-1 0,-2 -1,-3l-2 -5 8 -6 5 3c1,1 2,2 2,2 1,1 0,2 -1,3l-1 0 1 1c2,-1 4,-3 5,-4 2,-1 4,-2 5,-3l-1 -1 0 0zm-23 3l0 0 -5 -12 1 -1 10 8 -6 5z"/>
   <path class="fil5" d="M969 937c1,1 1,2 1,3 1,2 0,3 -1,5 -2,1 -3,2 -4,3 -2,1 -3,2 -4,0l-15 -17c-1,-1 0,-2 1,-3l1 -1 -1 -1c-1,1 -3,3 -5,4 -1,2 -3,3 -5,5l1 1 0 -1c1,-1 3,-2 4,0l15 17c2,2 0,3 -1,4l0 1 1 1c3,-3 5,-5 8,-8 3,-2 6,-5 9,-7 -1,-2 -2,-5 -4,-7l-1 1z"/>
   <path class="fil6" d="M703 953c0,0 0,0 1,0 -1,0 -1,0 -1,0z"/>
   <path class="fil6" d="M708 951c0,0 1,0 1,0 0,0 -1,0 -1,0z"/>
   <path class="fil6" d="M705 952c1,0 1,0 1,0 0,0 0,0 -1,0z"/>
   <path class="fil6" d="M700 954c0,0 1,0 1,0 0,0 -1,0 -1,0z"/>
   <path class="fil6" d="M729 945c0,0 0,0 0,0 0,0 0,-1 1,-1 -1,0 -1,1 -1,1z"/>
   <path class="fil6" d="M697 955c0,0 1,0 1,0 0,0 -1,0 -1,0z"/>
   <path class="fil6" d="M689 957c1,0 2,0 3,-1 -1,1 -2,1 -3,1z"/>
   <path class="fil6" d="M694 956c0,0 1,0 1,0 0,0 -1,0 -1,0z"/>
   <path class="fil6" d="M854 920c1,0 1,0 1,0 0,0 0,0 -1,0z"/>
   <path class="fil6" d="M861 921c0,0 1,0 1,0 0,0 -1,0 -1,0z"/>
   <path class="fil6" d="M686 958c0,0 1,0 1,0 0,0 -1,0 -1,0z"/>
   <path class="fil6" d="M842 919c0,0 1,0 1,0 0,0 -1,0 -1,0z"/>
   <path class="fil6" d="M868 922c0,0 1,0 1,0 0,0 -1,0 -1,0z"/>
   <path class="fil6" d="M825 919c0,0 0,0 0,0 0,0 0,0 0,0z"/>
   <path class="fil6" d="M836 919c0,0 1,0 1,0 0,0 -1,0 -1,0z"/>
   <path class="fil6" d="M730 944c0,0 1,0 2,0 -1,0 -2,0 -2,0z"/>
   <path class="fil6" d="M830 919c1,0 1,0 1,0 0,0 0,0 -1,0z"/>
   <path class="fil6" d="M848 919c0,0 1,0 1,0 0,0 -1,0 -1,0z"/>
   <path class="fil6" d="M634 966c1,0 2,0 2,0 0,0 -1,0 -2,0z"/>
   <path class="fil6" d="M639 966c1,0 2,0 2,0 0,0 -1,0 -2,0z"/>
   <path class="fil6" d="M644 965c1,0 2,0 2,0 0,0 -1,0 -2,0z"/>
   <path class="fil6" d="M682 959c1,0 1,0 2,0 -1,0 -1,0 -2,0z"/>
   <path class="fil6" d="M617 967c1,0 1,0 2,0 -1,0 -1,0 -2,0z"/>
   <path class="fil6" d="M649 965c1,0 2,0 2,0 0,0 -1,0 -2,0z"/>
   <path class="fil6" d="M623 967c1,0 1,0 2,0 -1,0 -1,0 -2,0z"/>
   <path class="fil6" d="M629 966c0,0 1,0 2,0 -1,0 -2,0 -2,0z"/>
   <path class="fil6" d="M658 964c1,0 2,-1 2,-1 0,0 -1,1 -2,1z"/>
   <path class="fil6" d="M675 961c0,0 1,-1 2,-1 -1,0 -2,1 -2,1z"/>
   <path class="fil6" d="M667 962c0,0 1,0 2,0 -1,0 -2,0 -2,0z"/>
   <path class="fil6" d="M663 963c0,0 1,0 2,0 -1,0 -2,0 -2,0z"/>
   <path class="fil6" d="M679 960c0,0 1,0 1,0 0,0 -1,0 -1,0z"/>
   <path class="fil6" d="M671 962c0,-1 1,-1 2,-1 -1,0 -2,0 -2,1z"/>
   <path class="fil6" d="M654 964c0,0 1,0 2,0 -1,0 -2,0 -2,0z"/>
   <path class="fil6" d="M782 925c0,0 0,0 0,0 0,0 0,0 0,0z"/>
   <path class="fil6" d="M787 924c0,0 0,0 0,0 0,0 0,0 0,0 0,0 0,0 0,0z"/>
   <path class="fil6" d="M805 920c0,0 0,0 0,0 0,0 0,0 0,0z"/>
   <path class="fil6" d="M809 920c0,0 1,0 1,0 0,0 -1,0 -1,0z"/>
   <path class="fil6" d="M791 923c0,0 0,0 0,0 0,0 0,0 0,0z"/>
   <path class="fil6" d="M814 919c1,0 1,0 1,0 0,0 0,0 -1,0z"/>
   <path class="fil6" d="M296 876c0,0 0,0 0,0 6,5 12,11 18,16 21,-5 39,-8 56,-10 -13,-10 -25,-19 -37,-30 0,0 1,-1 2,-2 4,-5 15,-16 26,-34 8,26 17,48 24,64 18,-2 33,-2 47,-1 -14,-25 -32,-66 -47,-121 4,-16 6,-35 6,-56 0,-35 -14,-73 -30,-104 0,-7 0,-15 0,-22 -1,-67 8,-129 24,-184 54,24 131,42 209,48 -3,93 -4,189 -2,291 -3,-1 -6,-1 -8,-1 -3,0 -6,0 -8,0 -13,-1 -25,-1 -37,-3 -3,0 -5,0 -8,0 -31,-4 -62,-9 -89,-17 -2,-1 -5,-2 -7,-3 -6,-1 -11,-3 -16,-5 -6,-2 -12,-5 -17,-7 44,39 107,59 191,66 1,53 4,108 7,164 8,1 16,1 24,0 3,-56 5,-109 7,-162 30,1 64,1 100,-1 41,-2 80,-9 115,-20 -15,65 -37,112 -51,140 15,-2 31,-4 48,-4 15,-32 33,-83 45,-149 70,-25 118,-57 128,-63 1,-1 2,-1 2,-1 -28,86 -82,161 -154,213 19,1 38,4 57,9 98,-85 159,-211 159,-351 0,-257 -208,-466 -465,-466 -184,0 -343,107 -419,262 -11,-12 -21,-22 -29,-27 -1,-34 -33,-42 -49,-39 31,3 39,41 39,41 -43,66 -47,176 -34,201 -40,-16 -100,-21 -100,-21 -18,-15 -18,-40 -13,-55 -16,14 -11,53 6,66 7,72 63,162 91,179 -28,-2 -72,1 -72,1 -21,-14 -25,-26 -23,-47 -15,14 -7,42 18,57 30,84 79,125 106,150 26,25 108,49 160,38zm27 -63l0 0c-21,-18 -27,-68 -5,-86 -35,5 -53,53 -4,138 -1,0 -1,1 -2,1 -56,-66 -57,-139 -57,-144 0,-6 8,-94 54,-151 21,21 47,67 51,111 5,44 1,74 -37,131zm9 -277l0 0c-1,4 -1,8 -1,12 -10,-14 -17,-22 -17,-22 0,-34 -23,-44 -33,-46 19,12 25,31 21,44 -27,32 -43,75 -50,92 -4,-6 -4,-6 -4,-6 0,0 35,-44 28,-120 -4,-40 -26,-84 -50,-120 58,-137 186,-237 338,-255 -25,5 -42,14 -42,25 0,5 5,10 12,14 0,0 0,0 0,0 -24,15 -47,32 -69,53 -12,-4 -24,-9 -35,-14 9,7 19,13 30,19 -37,37 -69,87 -93,154 -18,-8 -36,-17 -53,-27 8,14 25,28 48,41 -14,44 -25,96 -30,156zm529 -169l0 0c0,0 0,0 0,0 -20,-57 -47,-102 -77,-137 43,-12 69,-30 60,-50 0,0 0,0 0,0 29,18 55,40 78,65l0 0c0,0 43,73 -61,122zm-240 -122l0 0c52,2 104,-2 145,-11 28,37 54,86 72,143 -48,17 -124,31 -209,33 -2,-56 -5,-111 -8,-165zm-71 -84l0 0c15,4 35,7 57,8l0 0c0,0 0,0 0,0l-1 0 0 20c-1,14 -2,27 -3,41 -41,-1 -83,-7 -122,-18 22,-24 45,-42 68,-51 0,0 1,0 1,0zm68 28l0 0 0 -20 -1 0c0,0 0,0 0,0 24,0 45,-3 62,-8 25,11 50,30 74,58 -34,7 -81,12 -133,12 -1,-14 -1,-28 -2,-42zm190 -30l0 0c0,0 0,0 0,0 0,0 30,25 -13,47 -5,3 -14,6 -25,9 -23,-25 -49,-44 -75,-60 8,-5 12,-10 12,-15 0,-11 -16,-20 -42,-25 51,6 99,21 143,44zm-418 216l0 0c21,-64 51,-118 85,-157 36,15 82,23 128,26 -3,55 -6,110 -8,166 -68,-1 -140,-11 -205,-35zm389 339l0 0c-3,1 -5,1 -8,2 -7,1 -15,3 -22,4 -15,2 -31,5 -47,6 -2,0 -5,1 -7,1 -15,1 -30,2 -46,3 -2,0 -5,0 -7,0 -4,0 -7,1 -10,1 2,-102 1,-197 -2,-290 26,1 52,0 77,-3 56,-7 102,-17 140,-30 13,51 20,107 20,168 -1,44 -5,84 -11,120 -26,8 -52,14 -77,18zm257 -145l0 0c-22,56 -78,91 -141,115 5,-45 6,-94 1,-148 -5,-52 -14,-98 -25,-138 54,-24 84,-56 94,-99 46,67 72,148 73,235 0,1 0,2 0,2 0,11 -1,21 -2,32 0,0 0,0 0,1zm-863 -218l0 0c67,64 74,119 75,147 2,40 -20,83 -20,83 -8,-11 -17,-21 -27,-29 -3,-14 -7,-37 4,-50 -25,8 -26,34 -26,34 -13,-8 -25,-14 -32,-17 -13,-71 -4,-116 26,-168zm-118 173l0 0c0,0 66,7 117,38 51,31 74,74 74,74 0,0 -6,15 -6,25 -11,-25 -48,-50 -74,-28 13,2 60,20 60,60 0,0 -58,-9 -88,-29 -31,-20 -68,-62 -83,-140zm22 186l0 0c27,0 105,-4 163,34 0,0 2,16 9,38 -13,-3 -31,-3 -44,15 40,-5 60,25 61,26 0,0 0,0 0,0 3,7 8,14 13,22 -120,12 -183,-71 -202,-135z"/>
   <path class="fil7" d="M360 682c-4,-44 -30,-90 -51,-111 -46,57 -54,145 -54,151 0,5 1,78 57,144 1,0 1,-1 2,-1 -49,-85 -31,-133 4,-138 -22,18 -16,68 5,86 38,-57 42,-87 37,-131z"/>
   <path class="fil7" d="M179 536c0,0 1,-26 26,-34 -11,13 -7,36 -4,50 10,8 19,18 27,29 0,0 22,-43 20,-83 -1,-28 -8,-83 -75,-147 -30,52 -39,97 -26,168 7,3 19,9 32,17z"/>
   <path class="fil7" d="M138 664c30,20 88,29 88,29 0,-40 -47,-58 -60,-60 26,-22 63,3 74,28 0,-10 6,-25 6,-25 0,0 -23,-43 -74,-74 -51,-31 -117,-38 -117,-38 15,78 52,120 83,140z"/>
   <path class="fil7" d="M279 845c-5,-8 -10,-15 -13,-22 0,0 0,0 0,0 -1,-1 -21,-31 -61,-26 13,-18 31,-18 44,-15 -7,-22 -9,-38 -9,-38 -58,-38 -136,-34 -163,-34 19,64 82,147 202,135z"/>
   <polygon class="fil4" points="514,538 526,538 526,526 514,526 "/>
   <polygon class="fil4" points="552,538 565,538 565,526 552,526 "/>
   <polygon class="fil4" points="657,594 669,594 669,582 657,582 "/>
   <polygon class="fil4" points="688,582 676,582 676,594 688,594 "/>
   <polygon class="fil4" points="657,613 669,613 669,601 657,601 "/>
   <polygon class="fil4" points="688,601 676,601 676,613 688,613 "/>
   <polygon class="fil4" points="710,689 722,689 722,677 710,677 "/>
   <polygon class="fil4" points="534,538 546,538 546,526 534,526 "/>
   <path class="fil8" d="M868 922c-2,-1 -4,-1 -6,-1 0,0 -1,0 -1,0 -2,0 -4,-1 -6,-1 0,0 0,0 -1,0 -2,0 -3,0 -5,-1 0,0 -1,0 -1,0 -2,0 -3,0 -5,0 0,0 -1,0 -1,0 -2,0 -3,0 -5,0 0,0 -1,0 -1,0 -2,0 -3,0 -5,0 0,0 0,0 -1,0 -1,0 -3,0 -5,0 0,0 0,0 0,0 -4,0 -7,0 -10,0 0,0 0,0 -1,0 -1,0 -3,1 -4,1 0,0 -1,0 -1,0 -1,0 -3,0 -4,0 0,0 0,0 0,0 -5,1 -10,2 -14,3 0,0 0,0 0,0 -1,0 -3,0 -4,1 0,0 0,0 0,0 -2,0 -3,0 -5,1 0,0 0,0 0,0 -16,4 -28,10 -38,14 0,0 -1,0 -1,1 0,0 -1,0 -1,0 -1,0 -1,1 -2,1 0,0 0,0 0,0 -1,0 -2,1 -3,1 0,0 0,0 0,0 -1,0 -2,1 -2,1 0,0 0,0 0,0 -1,0 -2,0 -3,1 0,0 0,0 0,0 0,0 0,0 0,0 0,0 0,0 0,0 -1,0 -2,0 -2,0 -1,0 -1,1 -1,1 -1,0 -2,0 -3,1 -5,1 -11,3 -17,5 0,0 -1,0 -1,0 0,1 -1,1 -2,1 0,0 0,0 -1,0 0,0 -1,1 -1,1 -1,0 -1,0 -1,0 -1,0 -1,1 -2,1 0,0 -1,0 -1,0 -1,0 -1,0 -2,1 0,0 -1,0 -1,0 -1,0 -1,0 -2,1 0,0 -1,0 -1,0 -1,0 -2,0 -2,0 -1,1 -2,1 -3,1 0,0 -1,1 -2,1 0,0 -1,0 -1,0 -1,0 -2,0 -2,1 -1,0 -1,0 -2,0 0,0 -1,0 -2,1 0,0 -1,0 -1,0 -1,0 -2,0 -2,0 -1,0 -2,1 -2,1 -1,0 -2,0 -2,0 -1,0 -2,0 -2,1 -1,0 -2,0 -2,0 -1,0 -2,0 -2,0 -1,0 -2,1 -2,1 -1,0 -2,0 -2,0 -1,0 -2,0 -3,0 0,0 -1,1 -2,1 0,0 -1,0 -2,0 -1,0 -2,0 -2,0 -1,0 -2,0 -3,1 0,0 -1,0 -2,0 -1,0 -2,0 -3,0 0,0 -1,0 -2,0 -1,0 -2,0 -3,1 0,0 -1,0 -2,0 -1,0 -2,0 -3,0 0,0 -1,0 -2,0 -1,0 -2,0 -3,0 -1,0 -2,0 -2,0 -1,0 -3,0 -4,1 -1,0 -1,0 -2,0 -1,0 -3,0 -4,0 -1,0 -1,0 -2,0 -2,0 -4,0 -6,0 -77,-1 -123,-27 -166,-41 -29,-10 -81,2 -82,3 73,47 159,74 252,74 96,0 186,-30 260,-80 -2,0 -4,-1 -6,-1 0,0 -1,0 -1,0z"/>
   <path class="fil2" d="M859 878c-5,0 -11,0 -16,0 -17,0 -33,2 -48,4 -42,5 -74,16 -85,20 -13,5 -45,20 -86,23 -8,1 -16,1 -24,0 -16,-1 -33,-4 -51,-11 -44,-17 -73,-32 -117,-35 -14,-1 -29,-1 -47,1 -3,0 -7,1 -10,1 -2,0 -4,0 -5,1 -17,2 -35,5 -56,10 9,8 19,16 30,23 6,5 12,9 19,14 0,0 0,0 0,0 1,-1 53,-13 82,-3 43,14 89,40 166,41 2,0 4,0 6,0 1,0 1,0 2,0 1,0 3,0 4,0 1,0 1,0 2,0 1,-1 3,-1 4,-1 0,0 1,0 2,0 1,0 2,0 3,0 1,0 2,0 2,0 1,0 2,0 3,0 1,0 2,0 2,0 1,-1 2,-1 3,-1 1,0 2,0 2,0 1,0 2,0 3,0 1,0 2,0 2,0 1,-1 2,-1 3,-1 0,0 1,0 2,0 1,0 2,0 2,0 1,0 2,-1 2,-1 1,0 2,0 3,0 0,0 1,0 2,0 0,0 1,-1 2,-1 0,0 1,0 2,0 0,0 1,0 2,0 0,-1 1,-1 2,-1 0,0 1,0 2,0 0,0 1,-1 2,-1 0,0 1,0 2,0 0,0 1,0 1,0 1,-1 2,-1 2,-1 1,0 1,0 2,0 0,-1 1,-1 2,-1 0,0 1,0 1,0 1,0 2,-1 2,-1 1,0 2,0 3,-1 0,0 1,0 2,0 0,0 1,0 1,0 1,-1 1,-1 2,-1 0,0 1,0 1,0 1,-1 1,-1 2,-1 0,0 1,0 1,0 1,0 1,-1 2,-1 0,0 0,0 1,0 0,0 1,-1 1,-1 1,0 1,0 1,0 1,0 2,0 2,-1 0,0 1,0 1,0 6,-2 12,-4 17,-5 1,-1 2,-1 3,-1 0,0 0,0 0,0 0,0 0,-1 1,-1 0,0 1,0 2,0 0,0 0,0 0,0 0,0 0,0 0,0 0,0 0,0 0,0 1,-1 2,-1 3,-1 0,0 0,0 0,0 0,0 1,-1 2,-1 0,0 0,0 0,0 1,0 2,-1 3,-1 0,0 0,0 0,0 1,0 1,-1 2,-1 0,0 1,0 1,0 0,-1 1,-1 1,-1 10,-4 22,-10 38,-14 0,0 0,0 0,0 2,-1 3,-1 5,-1 0,0 0,0 0,0 0,0 0,0 0,0 1,-1 3,-1 4,-1 0,0 0,0 0,0 4,-1 9,-2 14,-3 0,0 0,0 0,0 1,0 3,0 4,0 0,0 1,0 1,0 1,0 3,-1 4,-1 1,0 1,0 1,0 3,0 6,0 10,0 0,0 0,0 0,0 2,0 4,0 5,0 1,0 1,0 1,0 2,0 3,0 5,0 0,0 1,0 1,0 2,0 3,0 5,0 0,0 1,0 1,0 2,0 3,0 5,0 0,0 1,0 1,0 2,1 3,1 5,1 1,0 1,0 1,0 2,0 4,1 6,1 0,0 1,0 1,0 2,0 4,0 6,1 0,0 1,0 1,0 2,0 4,1 6,1 7,-4 13,-9 19,-13 9,-7 18,-15 27,-23 -19,-5 -38,-8 -57,-9 -1,0 -3,0 -5,0z"/>
   <path class="fil3" d="M551 650l-57 -46 -67 48 15 0 0 58c27,8 58,13 89,17l0 -77 20 0zm-85 31l0 0 -12 0 0 -12 12 0 0 12zm0 -17l0 0 -12 0 0 -12 12 0 0 12zm17 17l0 0 -12 0 0 -12 12 0 0 12zm0 -17l0 0 -12 0 0 -12 12 0 0 12z"/>
   <polygon class="fil4" points="454,664 466,664 466,652 454,652 "/>
   <polygon class="fil4" points="471,664 483,664 483,652 471,652 "/>
   <polygon class="fil4" points="454,681 466,681 466,669 454,669 "/>
   <polygon class="fil4" points="471,681 483,681 483,669 471,669 "/>
  </g>
 </g>
</svg>
