<?xml version="1.0" encoding="UTF-8"?>
<!DOCTYPE svg PUBLIC "-//W3C//DTD SVG 1.1//EN" "http://www.w3.org/Graphics/SVG/1.1/DTD/svg11.dtd">
<!-- Creator: CorelDRAW X7 -->
<svg xmlns="http://www.w3.org/2000/svg" xml:space="preserve" width="500px" height="583px" version="1.1" style="shape-rendering:geometricPrecision; text-rendering:geometricPrecision; image-rendering:optimizeQuality; fill-rule:evenodd; clip-rule:evenodd"
viewBox="0 0 500 583"
 xmlns:xlink="http://www.w3.org/1999/xlink">
 <defs>
  <style type="text/css">
   <![CDATA[
    .fil2 {fill:#DDC507}
    .fil0 {fill:#00365C}
    .fil1 {fill:white}
   ]]>
  </style>
 </defs>
 <g id="Layer_x0020_1">
  <metadata id="CorelCorpID_0Corel-Layer"/>
  <g id="_2527757190880">
   <path class="fil0" d="M24 0l452 0c13,0 24,11 24,24l0 535c0,13 -11,24 -24,24l-452 0c-13,0 -24,-11 -24,-24l0 -535c0,-13 11,-24 24,-24zm100 219c3,-32 29,-57 62,-57 1,0 1,0 2,0 3,-32 30,-57 62,-57 32,0 59,25 62,57 1,0 1,0 2,0 33,0 59,25 62,57 31,3 55,30 55,62l-17 0c0,-26 -20,-46 -45,-46 -26,0 -46,20 -46,46l-25 0 0 109 78 0 0 17 -93 0 -1 -159c-4,-4 -9,-7 -14,-9l0 227 -16 0 0 -231c-1,0 -3,0 -4,0l0 231 -16 0 0 -227c-5,2 -10,5 -14,9l-1 159 -93 0 0 -17 78 0 0 -109 -25 0c0,-26 -20,-46 -46,-46 -25,0 -45,20 -45,46l-17 0c0,-32 24,-59 55,-62zm80 -54c24,7 42,28 44,53 1,0 3,0 4,0 2,-25 20,-46 44,-53 -2,-24 -22,-43 -46,-43 -24,0 -44,19 -46,43zm-13 96c6,-19 21,-34 41,-40 -2,-24 -22,-42 -46,-42 -23,0 -43,17 -45,40 23,3 42,20 50,42zm77 -40c20,6 35,21 41,40 8,-22 27,-39 50,-42 -2,-23 -22,-40 -45,-40 -24,0 -44,18 -46,42zm-182 301l0 -23 7 0 0 10 7 -10 7 0 -8 11 9 12 -8 0 -7 -11 0 11 -7 0zm-4 -349l-5 9 -35 -21 6 -10c2,-4 4,-7 5,-8 2,-2 3,-3 5,-3 1,-1 3,-1 5,-1 2,1 4,1 6,3 3,1 4,2 5,4 2,1 2,3 3,5 0,2 0,3 -1,5 0,1 -2,3 -3,6l-1 2 -1 2 11 7zm-19 -12l1 -2c1,-2 2,-4 2,-5 0,-1 -1,-2 -2,-3 -2,-1 -3,-1 -4,-1 -2,1 -3,2 -4,4l-1 2 8 5zm34 -10l-31 -27 17 -19 7 6 -10 11 5 4 9 -9 7 5 -9 10 5 5 10 -11 7 7 -17 18zm21 -24l-22 -34 8 -6 25 9c1,0 2,0 3,1 1,1 3,1 4,2 -1,-1 -2,-2 -3,-3 0,-1 -1,-2 -2,-3l-11 -17 9 -6 23 34 -9 6 -25 -9c0,0 -1,0 -3,-1 -1,-1 -2,-1 -4,-2 1,1 2,2 3,3 1,1 2,2 2,3l11 17 -9 6zm55 -48l-3 -8 21 -7c0,0 0,0 0,1 0,0 0,0 1,1 2,7 2,12 0,17 -3,5 -7,9 -13,11 -3,1 -6,2 -9,2 -3,-1 -6,-1 -8,-3 -3,-1 -5,-3 -7,-5 -2,-2 -3,-4 -4,-7 -1,-3 -1,-6 -1,-9 0,-2 1,-5 2,-8 1,-2 3,-4 5,-6 2,-2 5,-4 8,-5 4,-1 7,-1 11,-1 3,1 6,2 9,4l-7 8c-2,-1 -4,-2 -5,-2 -2,0 -3,0 -5,0 -3,1 -5,3 -7,6 -1,3 -1,6 1,10 1,3 3,6 5,7 3,2 6,2 9,1 3,-1 5,-2 6,-4 1,-2 2,-4 1,-7l-10 4zm41 -11l11 -2 -6 -12c-1,-1 -1,-1 -1,-2 -1,-1 -1,-2 -2,-4 0,1 0,2 0,3 0,1 0,2 0,3l-2 14zm-13 18l7 -43 14 -2 21 38 -11 2 -3 -7 -16 2 -1 8 -11 2zm51 -6l0 -19 -14 -22 13 0 5 11c0,0 0,0 1,0 0,1 0,2 1,3 0,-1 0,-2 1,-3 0,0 0,0 0,0l6 -11 13 0 -15 23 0 18 -11 0zm72 -9c-1,3 -2,6 -3,8 -2,2 -4,4 -7,6 -2,1 -5,2 -8,2 -3,1 -6,1 -8,0 -3,-1 -6,-2 -8,-4 -3,-1 -4,-4 -6,-6 -1,-2 -2,-5 -3,-8 0,-3 0,-6 1,-8 0,-3 1,-6 3,-8 2,-2 4,-4 6,-6 3,-1 6,-2 8,-2 3,-1 6,-1 9,0 3,1 5,2 8,4 2,1 4,3 6,6 1,2 2,5 3,8 0,3 0,5 -1,8zm-24 7c3,0 6,0 8,-2 3,-2 4,-4 5,-7 1,-4 1,-7 -1,-10 -1,-2 -3,-4 -6,-5 -3,0 -6,0 -9,2 -2,1 -4,4 -5,7 0,4 0,7 1,10 2,2 4,4 7,5zm67 37l-9 -5 6 -17c0,-1 1,-2 1,-4 1,-1 2,-3 2,-5 -1,2 -2,4 -4,6 0,0 -1,0 -1,0l-14 15 -6 -3 4 -20c0,0 0,-1 0,-1 0,-3 1,-5 1,-7 0,2 -1,3 -2,4 -1,2 -2,3 -3,4l-10 15 -9 -5 24 -34 10 5 -4 22c0,0 0,0 0,1 -1,2 -1,3 -1,5 0,-1 0,-2 1,-2 1,-1 1,-2 2,-3l15 -16 10 5 -13 40zm23 0l9 8 6 -13c0,0 0,-1 1,-2 0,-1 1,-2 1,-3 -1,1 -1,1 -2,2 -1,0 -2,1 -2,1l-13 7zm-21 1l38 -21 10 10 -17 40 -8 -8 3 -7 -12 -10 -6 4 -8 -8zm33 32l34 -23 6 9 -9 25c0,1 -1,1 -1,3 -1,1 -2,2 -3,4 1,-1 3,-2 4,-3 1,-1 2,-1 3,-2l16 -11 6 9 -34 23 -6 -9 9 -25c0,0 1,-1 2,-3 0,-1 1,-2 2,-4 -1,1 -2,2 -3,3 -1,1 -2,1 -3,2l-17 11 -6 -9zm-371 416l0 -31 8 0 0 12 11 0 0 -12 8 0 0 31 -8 0 0 -13 -11 0 0 13 -8 0zm33 -31l8 0 0 15c0,2 0,4 0,5 0,0 0,1 1,2 0,1 1,1 1,2 1,0 2,0 3,0 1,0 2,0 3,0 1,-1 1,-1 2,-2 0,-1 0,-2 0,-2 0,-1 1,-3 1,-5l0 -2 0 -13 8 0 0 16c0,3 0,6 -1,8 0,1 -1,3 -2,4 -1,1 -2,2 -4,3 -2,0 -4,1 -7,1 -2,0 -5,-1 -6,-1 -2,-1 -4,-2 -5,-3 -1,-1 -1,-3 -2,-4 0,-2 0,-5 0,-8l0 -3 0 -13zm32 31l0 -31 8 0 0 14 10 -14 10 0 -12 15 13 16 -11 0 -10 -14 0 14 -8 0zm30 -31l8 0 0 15c0,2 0,4 0,5 0,0 1,1 1,2 0,1 1,1 2,2 0,0 1,0 2,0 2,0 3,0 3,0 1,-1 2,-1 2,-2 0,-1 0,-2 1,-2 0,-1 0,-3 0,-5l0 -2 0 -13 8 0 0 16c0,3 0,6 -1,8 0,1 -1,3 -2,4 -1,1 -2,2 -4,3 -2,0 -4,1 -7,1 -2,0 -4,-1 -6,-1 -2,-1 -3,-2 -4,-3 -1,-1 -2,-3 -3,-4 0,-2 0,-5 0,-8l0 -3 0 -13zm67 31l-7 0 -2 -14c0,-1 -1,-2 -1,-3 0,-1 0,-2 0,-4 0,2 0,3 -1,5 0,1 0,1 0,1l-4 15 -6 0 -4 -15c0,0 0,0 0,-1 -1,-2 -1,-3 -2,-5 0,1 0,3 0,4 0,1 0,2 0,3l-2 14 -8 0 5 -31 8 0 5 16c0,0 0,0 0,0 0,2 1,3 1,4 0,-1 0,-1 0,-2 0,-1 0,-1 1,-2l4 -16 9 0 4 31zm17 0l0 -31 6 0c5,0 9,0 11,0 1,1 3,1 5,3 2,1 3,3 4,5 1,2 2,4 2,7 0,3 -1,5 -2,8 -1,2 -2,3 -4,5 -2,1 -3,2 -5,2 -2,1 -5,1 -9,1l-2 0 -6 0zm8 -7l2 0c3,0 5,-1 7,-2 1,-2 2,-4 2,-7 0,-3 -1,-5 -2,-6 -2,-2 -4,-2 -7,-2l-2 0 0 17zm31 -5l8 0 -3 -10c0,0 0,-1 0,-2 0,0 0,-1 -1,-2 0,0 0,1 0,2 0,1 -1,1 -1,2l-3 10zm-11 12l10 -31 10 0 11 31 -8 0 -2 -6 -12 0 -1 6 -8 0zm33 0l0 -31 8 0 11 16c1,0 1,1 2,2 0,1 1,2 1,3 0,-1 0,-2 0,-3 0,-1 0,-2 0,-3l0 -15 8 0 0 31 -8 0 -12 -16c0,-1 0,-1 -1,-2 0,-1 -1,-2 -2,-4 1,2 1,3 1,4 0,1 0,2 0,2l0 16 -8 0zm49 0l0 -31 8 0 0 12 11 0 0 -12 8 0 0 31 -8 0 0 -13 -11 0 0 13 -8 0zm41 -12l8 0 -3 -10c0,0 0,-1 0,-2 -1,0 -1,-1 -1,-2 0,0 0,1 -1,2 0,1 0,1 0,2l-3 10zm-12 12l11 -31 10 0 11 31 -9 0 -1 -6 -12 0 -2 6 -8 0zm69 0l-8 0 -2 -14c0,-1 0,-2 0,-3 0,-1 -1,-2 -1,-4 0,2 0,3 -1,5 0,1 0,1 0,1l-4 15 -6 0 -4 -15c0,0 0,0 0,-1 -1,-2 -1,-3 -1,-5 0,1 0,3 -1,4 0,1 0,2 0,3l-2 14 -7 0 4 -31 8 0 5 16c0,0 0,0 0,0 1,2 1,3 1,4 0,-1 0,-1 0,-2 1,-1 1,-1 1,-2l5 -16 8 0 5 31zm16 0l0 -31 9 0c3,0 6,0 7,0 2,0 3,1 4,2 1,1 2,2 2,3 1,1 1,3 1,4 0,3 0,5 -2,6 -1,2 -3,3 -5,3l9 13 -10 0 -7 -12 0 12 -8 0zm8 -17l2 0c2,0 3,0 4,-1 0,0 1,-1 1,-3 0,-1 0,-2 -1,-3 -1,-1 -2,-1 -4,-1l-2 0 0 8zm19 17l0 -31 8 0 0 31 -8 0zm-342 -42l0 -23 15 0 0 5 -9 0 0 4 8 0 0 5 -8 0 0 4 9 0 0 5 -15 0zm55 0l-6 0 -1 -10c-1,-1 -1,-2 -1,-3 0,0 0,-1 0,-2 0,1 0,2 -1,3 0,1 0,1 0,1l-3 11 -4 0 -4 -11c0,0 0,0 0,-1 0,-1 -1,-2 -1,-3 0,0 0,1 0,2 0,1 0,2 0,3l-2 10 -6 0 4 -23 6 0 4 12c0,0 0,0 0,0 0,1 1,2 1,3 0,-1 0,-1 0,-2 0,0 0,-1 0,-1l4 -12 6 0 4 23zm13 0l0 -23 14 0 0 5 -8 0 0 4 7 0 0 5 -7 0 0 4 8 0 0 5 -14 0zm27 0l0 -23 7 0 8 12c1,0 1,0 1,1 1,1 1,2 2,3 -1,-1 -1,-2 -1,-3 0,-1 0,-1 0,-2l0 -11 6 0 0 23 -6 0 -9 -12c0,0 0,-1 -1,-2 0,0 0,-1 -1,-2 0,1 0,2 0,2 1,1 1,2 1,2l0 12 -7 0zm41 0l0 -18 -5 0 0 -5 17 0 0 5 -6 0 0 18 -6 0zm24 0l0 -23 14 0 0 5 -8 0 0 4 8 0 0 5 -8 0 0 4 8 0 0 5 -14 0zm28 0l0 -23 6 0c3,0 5,0 6,0 1,0 2,1 3,1 0,1 1,2 1,3 1,1 1,2 1,3 0,2 0,3 -1,4 -1,1 -2,2 -4,2l6 10 -7 0 -5 -9 0 9 -6 0zm6 -12l1 0c1,0 2,-1 3,-1 1,-1 1,-1 1,-2 0,-1 0,-2 -1,-3 -1,0 -2,-1 -3,-1l-1 0 0 7zm24 12l0 -23 7 0 0 23 -7 0zm27 -9l7 0 -3 -8c0,0 0,0 0,-1 0,0 0,-1 -1,-2 0,1 0,1 0,2 0,0 0,1 0,1l-3 8zm-9 9l8 -23 8 0 8 23 -6 0 -1 -4 -9 0 -1 4 -7 0zm36 0l0 -23 6 0 9 12c0,0 0,0 1,1 0,1 1,2 1,3 0,-1 0,-2 0,-3 0,-1 0,-1 0,-2l0 -11 6 0 0 23 -6 0 -9 -12c0,0 -1,-1 -1,-2 0,0 -1,-1 -1,-2 0,1 0,2 0,2 0,1 0,2 0,2l0 12 -6 0z"/>
   <path class="fil1" d="M86 522l0 -23 7 0 0 10 7 -10 7 0 -8 11 9 12 -8 0 -7 -11 0 11 -7 0zm-4 -349l-5 9 -35 -21 6 -10c2,-4 4,-7 5,-8 2,-2 3,-3 5,-3 1,-1 3,-1 5,-1 2,1 4,1 6,3 3,1 4,2 5,4 2,1 2,3 3,5 0,2 0,3 -1,5 0,1 -2,3 -3,6l-1 2 -1 2 11 7zm-19 -12l1 -2c1,-2 2,-4 2,-5 0,-1 -1,-2 -2,-3 -2,-1 -3,-1 -4,-1 -2,1 -3,2 -4,4l-1 2 8 5zm34 -10l-31 -27 17 -19 7 6 -10 11 5 4 9 -9 7 5 -9 10 5 5 10 -11 7 7 -17 18zm21 -24l-22 -34 8 -6 25 9c1,0 2,0 3,1 1,1 3,1 4,2 -1,-1 -2,-2 -3,-3 0,-1 -1,-2 -2,-3l-11 -17 9 -6 23 34 -9 6 -25 -9c0,0 -1,0 -3,-1 -1,-1 -2,-1 -4,-2 1,1 2,2 3,3 1,1 2,2 2,3l11 17 -9 6zm55 -48l-3 -8 21 -7c0,0 0,0 0,1 0,0 0,0 1,1 2,7 2,12 0,17 -3,5 -7,9 -13,11 -3,1 -6,2 -9,2 -3,-1 -6,-1 -8,-3 -3,-1 -5,-3 -7,-5 -2,-2 -3,-4 -4,-7 -1,-3 -1,-6 -1,-9 0,-2 1,-5 2,-8 1,-2 3,-4 5,-6 2,-2 5,-4 8,-5 4,-1 7,-1 11,-1 3,1 6,2 9,4l-7 8c-2,-1 -4,-2 -5,-2 -2,0 -3,0 -5,0 -3,1 -5,3 -7,6 -1,3 -1,6 1,10 1,3 3,6 5,7 3,2 6,2 9,1 3,-1 5,-2 6,-4 1,-2 2,-4 1,-7l-10 4zm41 -11l11 -2 -6 -12c-1,-1 -1,-1 -1,-2 -1,-1 -1,-2 -2,-4 0,1 0,2 0,3 0,1 0,2 0,3l-2 14zm-13 18l7 -43 14 -2 21 38 -11 2 -3 -7 -16 2 -1 8 -11 2zm51 -6l0 -19 -14 -22 13 0 5 11c0,0 0,0 1,0 0,1 0,2 1,3 0,-1 0,-2 1,-3 0,0 0,0 0,0l6 -11 13 0 -15 23 0 18 -11 0zm72 -9c-1,3 -2,6 -3,8 -2,2 -4,4 -7,6 -2,1 -5,2 -8,2 -3,1 -6,1 -8,0 -3,-1 -6,-2 -8,-4 -3,-1 -4,-4 -6,-6 -1,-2 -2,-5 -3,-8 0,-3 0,-6 1,-8 0,-3 1,-6 3,-8 2,-2 4,-4 6,-6 3,-1 6,-2 8,-2 3,-1 6,-1 9,0 3,1 5,2 8,4 2,1 4,3 6,6 1,2 2,5 3,8 0,3 0,5 -1,8zm-24 7c3,0 6,0 8,-2 3,-2 4,-4 5,-7 1,-4 1,-7 -1,-10 -1,-2 -3,-4 -6,-5 -3,0 -6,0 -9,2 -2,1 -4,4 -5,7 0,4 0,7 1,10 2,2 4,4 7,5zm67 37l-9 -5 6 -17c0,-1 1,-2 1,-4 1,-1 2,-3 2,-5 -1,2 -2,4 -4,6 0,0 -1,0 -1,0l-14 15 -6 -3 4 -20c0,0 0,-1 0,-1 0,-3 1,-5 1,-7 0,2 -1,3 -2,4 -1,2 -2,3 -3,4l-10 15 -9 -5 24 -34 10 5 -4 22c0,0 0,0 0,1 -1,2 -1,3 -1,5 0,-1 0,-2 1,-2 1,-1 1,-2 2,-3l15 -16 10 5 -13 40zm23 0l9 8 6 -13c0,0 0,-1 1,-2 0,-1 1,-2 1,-3 -1,1 -1,1 -2,2 -1,0 -2,1 -2,1l-13 7zm-21 1l38 -21 10 10 -17 40 -8 -8 3 -7 -12 -10 -6 4 -8 -8zm33 32l34 -23 6 9 -9 25c0,1 -1,1 -1,3 -1,1 -2,2 -3,4 1,-1 3,-2 4,-3 1,-1 2,-1 3,-2l16 -11 6 9 -34 23 -6 -9 9 -25c0,0 1,-1 2,-3 0,-1 1,-2 2,-4 -1,1 -2,2 -3,3 -1,1 -2,1 -3,2l-17 11 -6 -9zm-371 416l0 -31 8 0 0 12 11 0 0 -12 8 0 0 31 -8 0 0 -13 -11 0 0 13 -8 0zm33 -31l8 0 0 15c0,2 0,4 0,5 0,0 0,1 1,2 0,1 1,1 1,2 1,0 2,0 3,0 1,0 2,0 3,0 1,-1 1,-1 2,-2 0,-1 0,-2 0,-2 0,-1 1,-3 1,-5l0 -2 0 -13 8 0 0 16c0,3 0,6 -1,8 0,1 -1,3 -2,4 -1,1 -2,2 -4,3 -2,0 -4,1 -7,1 -2,0 -5,-1 -6,-1 -2,-1 -4,-2 -5,-3 -1,-1 -1,-3 -2,-4 0,-2 0,-5 0,-8l0 -3 0 -13zm32 31l0 -31 8 0 0 14 10 -14 10 0 -12 15 13 16 -11 0 -10 -14 0 14 -8 0zm30 -31l8 0 0 15c0,2 0,4 0,5 0,0 1,1 1,2 0,1 1,1 2,2 0,0 1,0 2,0 2,0 3,0 3,0 1,-1 2,-1 2,-2 0,-1 0,-2 1,-2 0,-1 0,-3 0,-5l0 -2 0 -13 8 0 0 16c0,3 0,6 -1,8 0,1 -1,3 -2,4 -1,1 -2,2 -4,3 -2,0 -4,1 -7,1 -2,0 -4,-1 -6,-1 -2,-1 -3,-2 -4,-3 -1,-1 -2,-3 -3,-4 0,-2 0,-5 0,-8l0 -3 0 -13zm67 31l-7 0 -2 -14c0,-1 -1,-2 -1,-3 0,-1 0,-2 0,-4 0,2 0,3 -1,5 0,1 0,1 0,1l-4 15 -6 0 -4 -15c0,0 0,0 0,-1 -1,-2 -1,-3 -2,-5 0,1 0,3 0,4 0,1 0,2 0,3l-2 14 -8 0 5 -31 8 0 5 16c0,0 0,0 0,0 0,2 1,3 1,4 0,-1 0,-1 0,-2 0,-1 0,-1 1,-2l4 -16 9 0 4 31zm17 0l0 -31 6 0c5,0 9,0 11,0 1,1 3,1 5,3 2,1 3,3 4,5 1,2 2,4 2,7 0,3 -1,5 -2,8 -1,2 -2,3 -4,5 -2,1 -3,2 -5,2 -2,1 -5,1 -9,1l-2 0 -6 0zm8 -7l2 0c3,0 5,-1 7,-2 1,-2 2,-4 2,-7 0,-3 -1,-5 -2,-6 -2,-2 -4,-2 -7,-2l-2 0 0 17zm31 -5l8 0 -3 -10c0,0 0,-1 0,-2 0,0 0,-1 -1,-2 0,0 0,1 0,2 0,1 -1,1 -1,2l-3 10zm-11 12l10 -31 10 0 11 31 -8 0 -2 -6 -12 0 -1 6 -8 0zm33 0l0 -31 8 0 11 16c1,0 1,1 2,2 0,1 1,2 1,3 0,-1 0,-2 0,-3 0,-1 0,-2 0,-3l0 -15 8 0 0 31 -8 0 -12 -16c0,-1 0,-1 -1,-2 0,-1 -1,-2 -2,-4 1,2 1,3 1,4 0,1 0,2 0,2l0 16 -8 0zm49 0l0 -31 8 0 0 12 11 0 0 -12 8 0 0 31 -8 0 0 -13 -11 0 0 13 -8 0zm41 -12l8 0 -3 -10c0,0 0,-1 0,-2 -1,0 -1,-1 -1,-2 0,0 0,1 -1,2 0,1 0,1 0,2l-3 10zm-12 12l11 -31 10 0 11 31 -9 0 -1 -6 -12 0 -2 6 -8 0zm69 0l-8 0 -2 -14c0,-1 0,-2 0,-3 0,-1 -1,-2 -1,-4 0,2 0,3 -1,5 0,1 0,1 0,1l-4 15 -6 0 -4 -15c0,0 0,0 0,-1 -1,-2 -1,-3 -1,-5 0,1 0,3 -1,4 0,1 0,2 0,3l-2 14 -7 0 4 -31 8 0 5 16c0,0 0,0 0,0 1,2 1,3 1,4 0,-1 0,-1 0,-2 1,-1 1,-1 1,-2l5 -16 8 0 5 31zm16 0l0 -31 9 0c3,0 6,0 7,0 2,0 3,1 4,2 1,1 2,2 2,3 1,1 1,3 1,4 0,3 0,5 -2,6 -1,2 -3,3 -5,3l9 13 -10 0 -7 -12 0 12 -8 0zm8 -17l2 0c2,0 3,0 4,-1 0,0 1,-1 1,-3 0,-1 0,-2 -1,-3 -1,-1 -2,-1 -4,-1l-2 0 0 8zm19 17l0 -31 8 0 0 31 -8 0zm-342 -42l0 -23 15 0 0 5 -9 0 0 4 8 0 0 5 -8 0 0 4 9 0 0 5 -15 0zm55 0l-6 0 -1 -10c-1,-1 -1,-2 -1,-3 0,0 0,-1 0,-2 0,1 0,2 -1,3 0,1 0,1 0,1l-3 11 -4 0 -4 -11c0,0 0,0 0,-1 0,-1 -1,-2 -1,-3 0,0 0,1 0,2 0,1 0,2 0,3l-2 10 -6 0 4 -23 6 0 4 12c0,0 0,0 0,0 0,1 1,2 1,3 0,-1 0,-1 0,-2 0,0 0,-1 0,-1l4 -12 6 0 4 23zm13 0l0 -23 14 0 0 5 -8 0 0 4 7 0 0 5 -7 0 0 4 8 0 0 5 -14 0zm27 0l0 -23 7 0 8 12c1,0 1,0 1,1 1,1 1,2 2,3 -1,-1 -1,-2 -1,-3 0,-1 0,-1 0,-2l0 -11 6 0 0 23 -6 0 -9 -12c0,0 0,-1 -1,-2 0,0 0,-1 -1,-2 0,1 0,2 0,2 1,1 1,2 1,2l0 12 -7 0zm41 0l0 -18 -5 0 0 -5 17 0 0 5 -6 0 0 18 -6 0zm24 0l0 -23 14 0 0 5 -8 0 0 4 8 0 0 5 -8 0 0 4 8 0 0 5 -14 0zm28 0l0 -23 6 0c3,0 5,0 6,0 1,0 2,1 3,1 0,1 1,2 1,3 1,1 1,2 1,3 0,2 0,3 -1,4 -1,1 -2,2 -4,2l6 10 -7 0 -5 -9 0 9 -6 0zm6 -12l1 0c1,0 2,-1 3,-1 1,-1 1,-1 1,-2 0,-1 0,-2 -1,-3 -1,0 -2,-1 -3,-1l-1 0 0 7zm24 12l0 -23 7 0 0 23 -7 0zm27 -9l7 0 -3 -8c0,0 0,0 0,-1 0,0 0,-1 -1,-2 0,1 0,1 0,2 0,0 0,1 0,1l-3 8zm-9 9l8 -23 8 0 8 23 -6 0 -1 -4 -9 0 -1 4 -7 0zm36 0l0 -23 6 0 9 12c0,0 0,0 1,1 0,1 1,2 1,3 0,-1 0,-2 0,-3 0,-1 0,-1 0,-2l0 -11 6 0 0 23 -6 0 -9 -12c0,0 -1,-1 -1,-2 0,0 -1,-1 -1,-2 0,1 0,2 0,2 0,1 0,2 0,2l0 12 -6 0z"/>
   <path class="fil2" d="M124 219c3,-32 29,-57 62,-57 1,0 1,0 2,0 3,-32 30,-57 62,-57 32,0 59,25 62,57 1,0 1,0 2,0 33,0 59,25 62,57 31,3 55,30 55,62l-17 0c0,-26 -20,-46 -45,-46 -26,0 -46,20 -46,46l-25 0 0 109 78 0 0 17 -93 0 -1 -159c-4,-4 -9,-7 -14,-9l0 227 -16 0 0 -231c-1,0 -3,0 -4,0l0 231 -16 0 0 -227c-5,2 -10,5 -14,9l-1 159 -93 0 0 -17 78 0 0 -109 -25 0c0,-26 -20,-46 -46,-46 -25,0 -45,20 -45,46l-17 0c0,-32 24,-59 55,-62zm80 -54c24,7 42,28 44,53 1,0 3,0 4,0 2,-25 20,-46 44,-53 -2,-24 -22,-43 -46,-43 -24,0 -44,19 -46,43zm-13 96c6,-19 21,-34 41,-40 -2,-24 -22,-42 -46,-42 -23,0 -43,17 -45,40 23,3 42,20 50,42zm77 -40c20,6 35,21 41,40 8,-22 27,-39 50,-42 -2,-23 -22,-40 -45,-40 -24,0 -44,18 -46,42z"/>
  </g>
 </g>
</svg>
